<svg width="512" height="512" viewBox="0 0 140 140" xmlns="http://www.w3.org/2000/svg">
	<rect width="140" height="140" fill="#151a22" rx="19.09"/>

	<!-- Center logo visually, not geometrically. -->
	<g transform="translate(48, 34.5)">
		<path stroke-linecap="round" fill-rule="evenodd" stroke="#c8c9cb" stroke-width="3" fill="#c8c9cb" d="M 43.896 71.095 L 26.709 41.505 L 6.055 41.505 L 6.055 71.095 L 0 71.095 L 0 0.001 L 23.096 0.001 Q 34.473 0.001 40.869 5.518 A 18.024 18.024 0 0 1 46.914 16.543 A 26.457 26.457 0 0 1 47.266 20.948 Q 47.266 27.784 43.262 33.009 Q 39.258 38.233 32.52 40.235 L 50.293 70.46 L 50.293 71.095 L 43.896 71.095 Z M 6.055 5.128 L 6.055 36.378 L 24.463 36.378 Q 32.031 36.378 36.621 32.081 A 14.288 14.288 0 0 0 41.171 22.207 A 19.351 19.351 0 0 0 41.211 20.948 A 18.944 18.944 0 0 0 40.62 16.077 A 13.297 13.297 0 0 0 36.426 9.278 A 15.821 15.821 0 0 0 30.492 6.109 Q 28.127 5.404 25.29 5.205 A 32.856 32.856 0 0 0 22.998 5.128 L 6.055 5.128 Z" vector-effect="non-scaling-stroke"/>
	</g>
</svg>
